<svg xmlns="http://www.w3.org/2000/svg" width="760" height="266" viewBox="0 0 760 266" font-family="-apple-system, 'Segoe UI', Helvetica, Arial, sans-serif">
<title>Input tokens per request: Opus behind Codex about 227k, all full price; Tandem 24.7k, and 24.7k read from cache on a repeat request.</title>
<text x="20" y="30" font-size="17" font-weight="600" fill="#0b0b0b">Input tokens per request</text>
<text x="20" y="52" font-size="12.5" fill="#52514e">Same one-word prompt through Codex. Fewer is better; cached tokens are much cheaper.</text>
<rect x="20" y="70" width="11" height="11" rx="2" fill="#2a78d6"/>
<text x="37" y="80" font-size="12.5" fill="#52514e">Full-price input</text>
<rect x="171" y="70" width="11" height="11" rx="2" fill="#eb6834"/>
<text x="188" y="80" font-size="12.5" fill="#52514e">Read from prompt cache</text>
<line x1="250.0" y1="98" x2="250.0" y2="228" stroke="#e4e3de" stroke-width="1"/>
<text x="250.0" y="246" font-size="11.5" text-anchor="middle" fill="#6e6d68">0</text>
<line x1="328.0" y1="98" x2="328.0" y2="228" stroke="#e4e3de" stroke-width="1"/>
<text x="328.0" y="246" font-size="11.5" text-anchor="middle" fill="#6e6d68">50k</text>
<line x1="406.0" y1="98" x2="406.0" y2="228" stroke="#e4e3de" stroke-width="1"/>
<text x="406.0" y="246" font-size="11.5" text-anchor="middle" fill="#6e6d68">100k</text>
<line x1="484.0" y1="98" x2="484.0" y2="228" stroke="#e4e3de" stroke-width="1"/>
<text x="484.0" y="246" font-size="11.5" text-anchor="middle" fill="#6e6d68">150k</text>
<line x1="562.0" y1="98" x2="562.0" y2="228" stroke="#e4e3de" stroke-width="1"/>
<text x="562.0" y="246" font-size="11.5" text-anchor="middle" fill="#6e6d68">200k</text>
<line x1="640.0" y1="98" x2="640.0" y2="228" stroke="#e4e3de" stroke-width="1"/>
<text x="640.0" y="246" font-size="11.5" text-anchor="middle" fill="#6e6d68">250k</text>
<text x="20" y="114" font-size="13.5" font-weight="600" fill="#0b0b0b">Opus behind Codex</text>
<text x="20" y="130" font-size="11.5" fill="#52514e">first version, average of 2 runs</text>
<path d="M250.0 104 h349.6 a4 4 0 0 1 4 4 v14 a4 4 0 0 1 -4 4 h-349.6 z" fill="#2a78d6"/>
<text x="611.6" y="119" font-size="12.5" fill="#0b0b0b"><tspan font-weight="600">≈227k</tspan><tspan fill="#52514e"> · 0 cached</tspan></text>
<text x="20" y="158" font-size="13.5" font-weight="600" fill="#0b0b0b">Tandem</text>
<text x="20" y="174" font-size="11.5" fill="#52514e">first request</text>
<rect x="250.0" y="148" width="25.4" height="22" fill="#2a78d6"/>
<path d="M277.4 148 h9.2 a4 4 0 0 1 4 4 v14 a4 4 0 0 1 -4 4 h-9.2 z" fill="#eb6834"/>
<text x="298.6" y="163" font-size="12.5" fill="#0b0b0b"><tspan font-weight="600">24.7k</tspan><tspan fill="#52514e"> · 8.5k cached</tspan></text>
<text x="20" y="202" font-size="13.5" font-weight="600" fill="#0b0b0b">Tandem</text>
<text x="20" y="218" font-size="11.5" fill="#52514e">repeat request</text>
<rect x="250.0" y="192" width="0.0" height="22" fill="#2a78d6"/>
<path d="M250.0 192 h34.6 a4 4 0 0 1 4 4 v14 a4 4 0 0 1 -4 4 h-34.6 z" fill="#eb6834"/>
<text x="296.6" y="207" font-size="12.5" fill="#0b0b0b"><tspan font-weight="600">24.7k</tspan><tspan fill="#52514e"> · all cached</tspan></text>
</svg>